<?xml version="1.0" encoding="UTF-8"?>
<svg id="Layer_2" data-name="Layer 2" xmlns="http://www.w3.org/2000/svg" viewBox="0 0 657.6 321.06">
  <defs>
    <style>
      .cls-1 {
        fill: #4fa352;
        fill-rule: evenodd;
      }

      .cls-2 {
        fill: #20252b;
      }
    </style>
  </defs>
  <g id="Layer_5" data-name="Layer 5">
    <g>
      <path class="cls-1" d="M273.9,174.52h-8.83c-.15-.2-.32-.41-.5-.63-7.65-9.36-15.24-18.17-23.2-26.99v-10.57l.46,.49c6.89,7.28,13.58,14.68,19.99,22.39,4.19,5.05,8.29,9.94,12.07,15.31m37.1,0h-10.05c-5.17-5.28-10.37-10.58-15.66-15.68-11.13-10.71-21.81-20.81-34.07-30.29-3.28-2.53-6.54-5.04-9.85-7.5v-8.76c12.76,8.99,24.54,18.35,36.25,29.38,8.51,8.03,17.27,16.17,25.32,24.65,2.65,2.79,5.35,5.5,8.05,8.2Zm59.41,0h-10.49c-6.84-6.55-13.88-12.86-21.52-19.01-17.57-14.13-38.17-27.62-58.08-38.17-7.24-3.84-14.55-7.29-22.11-10.47-5.56-2.32-11.19-4.42-16.84-6.44v-7.58c14.4,5.19,27.32,10.38,41.21,17.54,7.37,3.8,14.54,7.89,21.58,12.26l.44,.28c8.39,5.25,17.25,11.05,25.12,16.91,14.3,10.72,26.74,21.26,39.61,33.66l1.06,1.02Zm-4.73-110.11c1.53,9.27,10.62,13.14,21.24,13.14,11.88,0,20.52-5.22,20.52-15.21,0-6.66-3.96-11.79-12.51-13.59l-10.62-2.16c-2.88-.63-3.42-1.89-3.42-3.15,0-1.62,1.26-3.51,5.13-3.51,4.41,0,7.11,2.52,7.56,5.31l13.14-2.61c-1.8-7.83-9.27-12.96-20.52-12.96s-19.44,6.03-19.44,15.3c0,7.11,4.77,11.61,13.14,13.14l9.18,1.8c3.33,.63,4.5,1.8,4.5,3.33,0,1.98-2.07,3.6-5.85,3.6s-7.38-1.44-8.01-5.31l-14.04,2.88Zm-29.43,.9c-5.85,0-11.07-4.68-11.07-11.7s5.22-11.7,11.07-11.7c6.3,0,10.89,4.77,10.89,11.7s-4.59,11.7-10.89,11.7Zm2.97-35.65c-5.85,0-10.53,1.8-14.04,4.95V11.39h-14.4V76.2h14.4v-3.6c3.51,3.15,8.19,4.95,14.04,4.95,11.97,0,22.05-9.63,22.05-23.94s-10.08-23.94-22.05-23.94Zm-64.36,35.65c-6.3,0-10.89-4.68-10.89-11.7s4.59-11.7,10.89-11.7c5.85,0,11.07,4.77,11.07,11.7s-5.22,11.7-11.07,11.7Zm25.47-34.3h-14.4v3.6c-3.51-3.15-8.19-4.95-14.04-4.95-11.97,0-22.05,9.72-22.05,23.94s10.08,23.94,22.05,23.94c5.85,0,10.53-1.8,14.04-4.95v3.6h14.4V31.01ZM261.51,0h134.25c11.08,0,20.14,9.06,20.14,20.14v63.92c-20.74,2.02-41.97,5.47-61.19,11.25-6.89,2.1-16.27,5.5-22.24,9.44-2.21,1.64-.61,2.05,1.24,3.4,5.41,3.93,11.15,7.58,16.33,11.75,2.41,1.96,4.8,3.92,7.24,5.84,1.26,.98,.81,.93,2.58-.1,4.95-3,9.76-6.49,14.71-9.63,13.5-8.55,27.08-16.38,41.33-23.08v7.94c-6.86,3.31-13.54,6.88-20.38,10.86-8.53,4.97-16.99,10.07-25.26,15.45-.84,.54-6.25,3.78-5.79,4.67,.93,1.76,11.67,11.54,14.56,14.64,1.44,1.54,7.81,8.97,8.87,9.6,1.64,.97,2.5-.57,3.72-1.73,3.55-3.17,6.85-6.46,10.17-9.87,2-2.06,3.94-4.15,5.87-6.28,2.82-3.13,5.53-6.12,8.25-9.26v11.03c-1.45,1.61-2.9,3.19-4.33,4.72-4.76,5.08-10.24,9.41-15.08,14.33-4.34,4.41-2.62,4.65,.9,8.83,1.6,1.91,3.03,3.79,4.57,5.68-1.96,.64-4.04,.98-6.2,.98h-.43c-6.43-8.17-13.15-16.12-20.4-23.58-8.17-8.39-17.64-17.36-26.65-24.81-31.53-25.57-67.76-36.72-106.89-42.54V20.14c0-11.08,9.06-20.14,20.14-20.14Z"/>
      <g>
        <path class="cls-2" d="M15.81,293.68H0l29.39-81.6h15.47l29.28,81.6h-16.03l-6.35-18.48H22.27l-6.46,18.48Zm19.37-55.33l-8.46,24.05h20.6l-8.46-24.05c-.37-1.19-.74-2.39-1.11-3.62-.37-1.22-.63-2.24-.78-3.06-.07,.82-.3,1.84-.67,3.06-.37,1.22-.74,2.43-1.11,3.62Z"/>
        <path class="cls-2" d="M77.59,264.96c0-5.42,1.09-10.24,3.28-14.47,2.19-4.23,5.27-7.57,9.24-10.02,3.97-2.45,8.55-3.67,13.75-3.67,4.6,0,8.55,.98,11.86,2.95,3.3,1.97,5.58,4.66,6.85,8.07l-1.56,1.34,1.22-10.58h13.47v52.1c0,6.23-1.19,11.63-3.56,16.2-2.38,4.56-5.73,8.07-10.08,10.52s-9.56,3.67-15.64,3.67c-8.02,0-14.58-2.15-19.71-6.46-5.12-4.31-8.13-10.21-9.02-17.7h14.58c.37,3.49,1.8,6.2,4.29,8.13,2.49,1.93,5.77,2.89,9.85,2.89,4.53,0,8.14-1.32,10.85-3.95,2.71-2.64,4.06-6.14,4.06-10.52v-13.25l1.67,1.45c-1.34,3.34-3.77,6.01-7.29,8.02-3.53,2-7.59,3.01-12.19,3.01-5.2,0-9.74-1.19-13.64-3.56-3.9-2.37-6.92-5.66-9.07-9.85-2.15-4.19-3.23-8.96-3.23-14.31Zm14.47-.33c0,2.97,.61,5.6,1.84,7.9,1.22,2.3,2.91,4.14,5.07,5.51,2.15,1.37,4.68,2.06,7.57,2.06s5.45-.65,7.68-1.95c2.23-1.3,3.93-3.12,5.12-5.45,1.19-2.34,1.78-5.03,1.78-8.07s-.59-5.79-1.78-8.02c-1.19-2.23-2.88-3.99-5.07-5.29-2.19-1.3-4.81-1.95-7.85-1.95s-5.42,.65-7.57,1.95c-2.15,1.3-3.82,3.1-5.01,5.4-1.19,2.3-1.78,4.94-1.78,7.9Z"/>
        <path class="cls-2" d="M184.91,238.35v13.47h-5.12c-4.9,0-8.76,1.28-11.58,3.84-2.82,2.56-4.23,6.55-4.23,11.97v26.05h-14.47v-55.11h13.58l1.22,11.58h-1.34c.74-3.64,2.45-6.64,5.12-9.02,2.67-2.37,6.23-3.56,10.69-3.56,.96,0,1.95,.06,2.95,.17s2.06,.32,3.17,.61Z"/>
        <path class="cls-2" d="M201.16,228.11c-2.38,0-4.42-.83-6.12-2.5-1.71-1.67-2.56-3.69-2.56-6.07s.85-4.51,2.56-6.18c1.71-1.67,3.75-2.5,6.12-2.5s4.4,.83,6.07,2.5c1.67,1.67,2.5,3.73,2.5,6.18s-.83,4.4-2.5,6.07c-1.67,1.67-3.69,2.5-6.07,2.5Zm-7.12,65.57v-55.11h14.47v55.11h-14.47Z"/>
        <path class="cls-2" d="M235.79,293.68h-13.47v-83.16h14.47v35.62c1.71-2.97,4.29-5.27,7.74-6.9,3.45-1.63,7.25-2.45,11.41-2.45,5.19,0,9.69,1.24,13.47,3.73,3.79,2.49,6.7,5.98,8.74,10.46,2.04,4.49,3.06,9.67,3.06,15.53s-1.1,10.61-3.28,14.92c-2.19,4.31-5.27,7.66-9.24,10.07-3.97,2.41-8.59,3.62-13.86,3.62-4.01,0-7.64-.87-10.91-2.62-3.27-1.74-5.68-4.1-7.24-7.07l-.89,8.24Zm1.11-27.83c0,3.12,.61,5.9,1.84,8.35,1.22,2.45,2.97,4.34,5.23,5.68,2.26,1.34,4.92,2,7.96,2s5.66-.69,7.85-2.06c2.19-1.37,3.88-3.26,5.07-5.68,1.19-2.41,1.78-5.18,1.78-8.29s-.59-5.88-1.78-8.29c-1.19-2.41-2.88-4.3-5.07-5.68-2.19-1.37-4.81-2.06-7.85-2.06s-5.7,.67-7.96,2c-2.26,1.34-4.01,3.21-5.23,5.62-1.22,2.41-1.84,5.21-1.84,8.41Z"/>
        <path class="cls-2" d="M327.63,238.57h14.47v55.11h-13.47l-1-7.01c-1.71,2.52-4.17,4.56-7.4,6.12-3.23,1.56-6.62,2.34-10.19,2.34-6.31,0-11.26-1.98-14.86-5.96-3.6-3.97-5.4-9.37-5.4-16.2v-34.51h14.47v29.39c0,5.05,.96,8.7,2.89,10.97,1.93,2.26,4.75,3.4,8.46,3.4,4.08,0,7.11-1.21,9.07-3.62,1.97-2.41,2.95-6.14,2.95-11.19v-28.83Z"/>
        <path class="cls-2" d="M350.56,276.76h13.8c.07,2.3,.93,4.1,2.56,5.4,1.63,1.3,3.93,1.95,6.9,1.95s5.36-.56,6.96-1.67c1.59-1.11,2.39-2.56,2.39-4.34,0-1.26-.41-2.37-1.22-3.34-.82-.96-2.41-1.71-4.79-2.23l-10.02-2.34c-4.97-1.11-8.68-2.91-11.13-5.4-2.45-2.49-3.67-5.99-3.67-10.52,0-3.64,.96-6.75,2.89-9.35,1.93-2.6,4.54-4.6,7.85-6.01,3.3-1.41,7.11-2.11,11.41-2.11s7.81,.76,10.97,2.28c3.15,1.52,5.62,3.62,7.4,6.29s2.67,5.86,2.67,9.57h-13.69c0-2.3-.71-4.1-2.12-5.4-1.41-1.3-3.38-1.95-5.9-1.95s-4.38,.56-5.79,1.67c-1.41,1.11-2.12,2.6-2.12,4.45,0,2.89,2.3,4.86,6.9,5.9l10.02,2.23c4.6,1.04,8.07,2.73,10.41,5.07s3.51,5.66,3.51,9.96c0,3.71-.98,6.94-2.95,9.69-1.97,2.75-4.71,4.86-8.24,6.35-3.53,1.48-7.59,2.23-12.19,2.23-6.98,0-12.52-1.69-16.64-5.07-4.12-3.38-6.18-7.81-6.18-13.3Z"/>
        <path class="cls-2" d="M413.91,228.11c-2.38,0-4.42-.83-6.12-2.5-1.71-1.67-2.56-3.69-2.56-6.07s.85-4.51,2.56-6.18c1.71-1.67,3.75-2.5,6.12-2.5s4.4,.83,6.07,2.5c1.67,1.67,2.5,3.73,2.5,6.18s-.83,4.4-2.5,6.07c-1.67,1.67-3.69,2.5-6.07,2.5Zm-7.12,65.57v-55.11h14.47v55.11h-14.47Z"/>
        <path class="cls-2" d="M449.53,293.68h-14.47v-55.11h13.47l1.11,6.79c1.71-2.67,4.1-4.77,7.18-6.29,3.08-1.52,6.51-2.28,10.3-2.28,6.75,0,11.91,2.04,15.47,6.12,3.56,4.08,5.34,9.69,5.34,16.81v33.95h-14.36v-30.5c0-4.3-1.02-7.59-3.06-9.85-2.04-2.26-4.77-3.4-8.18-3.4-4.01,0-7.14,1.26-9.41,3.79-2.26,2.52-3.4,5.9-3.4,10.13v29.84Z"/>
        <path class="cls-2" d="M526.01,295.13c-5.49,0-10.35-1.24-14.58-3.73-4.23-2.49-7.55-5.92-9.96-10.3-2.41-4.38-3.62-9.39-3.62-15.03s1.17-10.85,3.51-15.2c2.34-4.34,5.6-7.77,9.8-10.3,4.19-2.52,9-3.78,14.42-3.78s10.39,1.17,14.47,3.51c4.08,2.34,7.24,5.64,9.46,9.91,2.23,4.27,3.34,9.3,3.34,15.08v4.23l-47.31,.11,.22-9.13h32.73c0-3.56-1.15-6.42-3.45-8.57-2.3-2.15-5.42-3.23-9.35-3.23-3.12,0-5.73,.63-7.85,1.89-2.12,1.26-3.69,3.19-4.73,5.79-1.04,2.6-1.56,5.79-1.56,9.57,0,5.72,1.22,10.02,3.67,12.91s6.12,4.34,11.02,4.34c3.64,0,6.62-.65,8.96-1.95,2.34-1.3,3.84-3.17,4.51-5.62h13.36c-1.11,6.01-4.08,10.76-8.91,14.25-4.83,3.49-10.87,5.23-18.15,5.23Z"/>
        <path class="cls-2" d="M559.41,276.76h13.8c.07,2.3,.93,4.1,2.56,5.4,1.63,1.3,3.93,1.95,6.9,1.95s5.36-.56,6.96-1.67c1.59-1.11,2.39-2.56,2.39-4.34,0-1.26-.41-2.37-1.22-3.34-.82-.96-2.41-1.71-4.79-2.23l-10.02-2.34c-4.97-1.11-8.68-2.91-11.13-5.4-2.45-2.49-3.67-5.99-3.67-10.52,0-3.64,.96-6.75,2.89-9.35,1.93-2.6,4.54-4.6,7.85-6.01,3.3-1.41,7.11-2.11,11.41-2.11s7.81,.76,10.97,2.28c3.15,1.52,5.62,3.62,7.4,6.29s2.67,5.86,2.67,9.57h-13.69c0-2.3-.71-4.1-2.12-5.4-1.41-1.3-3.38-1.95-5.9-1.95s-4.38,.56-5.79,1.67c-1.41,1.11-2.12,2.6-2.12,4.45,0,2.89,2.3,4.86,6.9,5.9l10.02,2.23c4.6,1.04,8.07,2.73,10.41,5.07s3.51,5.66,3.51,9.96c0,3.71-.98,6.94-2.95,9.69-1.97,2.75-4.71,4.86-8.24,6.35-3.53,1.48-7.59,2.23-12.19,2.23-6.98,0-12.52-1.69-16.64-5.07-4.12-3.38-6.18-7.81-6.18-13.3Z"/>
        <path class="cls-2" d="M611.4,276.76h13.8c.07,2.3,.93,4.1,2.56,5.4,1.63,1.3,3.93,1.95,6.9,1.95s5.36-.56,6.96-1.67c1.59-1.11,2.39-2.56,2.39-4.34,0-1.26-.41-2.37-1.22-3.34-.82-.96-2.41-1.71-4.79-2.23l-10.02-2.34c-4.97-1.11-8.68-2.91-11.13-5.4-2.45-2.49-3.67-5.99-3.67-10.52,0-3.64,.96-6.75,2.89-9.35,1.93-2.6,4.54-4.6,7.85-6.01,3.3-1.41,7.11-2.11,11.41-2.11s7.81,.76,10.97,2.28c3.15,1.52,5.62,3.62,7.4,6.29s2.67,5.86,2.67,9.57h-13.69c0-2.3-.71-4.1-2.12-5.4-1.41-1.3-3.38-1.95-5.9-1.95s-4.38,.56-5.79,1.67c-1.41,1.11-2.12,2.6-2.12,4.45,0,2.89,2.3,4.86,6.9,5.9l10.02,2.23c4.6,1.04,8.07,2.73,10.41,5.07s3.51,5.66,3.51,9.96c0,3.71-.98,6.94-2.95,9.69-1.97,2.75-4.71,4.86-8.24,6.35-3.53,1.48-7.59,2.23-12.19,2.23-6.98,0-12.52-1.69-16.64-5.07-4.12-3.38-6.18-7.81-6.18-13.3Z"/>
      </g>
    </g>
  </g>
</svg>