<?xml version="1.0" encoding="UTF-8"?>
<svg id="Layer_2" data-name="Layer 2" xmlns="http://www.w3.org/2000/svg" viewBox="0 0 773.44 773.44">
  <defs>
    <style>
      .cls-1 {
        fill: #134611;
        fill-rule: evenodd;
      }
    </style>
  </defs>
  <g id="Layer_5" data-name="Layer 5">
    <path class="cls-1" d="M144.15,773.44h-39.12c-.69-.89-1.42-1.81-2.22-2.79-33.92-41.49-67.53-80.54-102.81-119.6v-46.83l2.06,2.18c30.53,32.25,60.21,65.05,88.59,99.21,18.57,22.4,36.76,44.06,53.51,67.84m164.41,0h-44.53c-22.92-23.41-45.96-46.88-69.41-69.48-49.32-47.48-96.67-92.24-150.98-134.25-14.53-11.21-29-22.35-43.65-33.25v-38.83c56.56,39.83,108.74,81.33,160.64,130.23,37.7,35.6,76.56,71.67,112.23,109.22,11.77,12.35,23.71,24.39,35.69,36.35Zm263.29,0h-46.47c-30.33-29.02-61.51-57.01-95.37-84.24-77.88-62.62-169.16-122.39-257.41-169.16-32.1-17.01-64.49-32.33-97.98-46.4-24.65-10.28-49.57-19.6-74.62-28.55v-33.6c63.8,22.98,121.08,45.99,182.64,77.73,32.68,16.85,64.42,34.95,95.66,54.35l1.96,1.22c37.19,23.25,76.46,48.99,111.34,74.95,63.38,47.5,118.49,94.24,175.56,149.15l4.69,4.53Zm-20.98-488c6.78,41.09,47.07,58.24,94.15,58.24,52.65,0,90.95-23.14,90.95-67.42,0-29.52-17.55-52.26-55.45-60.24l-47.07-9.57c-12.76-2.79-15.16-8.38-15.16-13.96,0-7.18,5.59-15.55,22.74-15.55,19.55,0,31.51,11.17,33.51,23.54l58.24-11.57c-7.98-34.71-41.09-57.45-90.96-57.45s-86.17,26.73-86.17,67.82c0,31.52,21.14,51.46,58.24,58.24l40.69,7.98c14.76,2.79,19.95,7.98,19.95,14.76,0,8.77-9.18,15.96-25.93,15.96s-32.71-6.38-35.5-23.54l-62.23,12.76Zm-130.45,3.99c-25.93,0-49.07-20.74-49.07-51.86s23.14-51.86,49.07-51.86c27.92,0,48.27,21.14,48.27,51.86s-20.34,51.86-48.27,51.86Zm13.17-157.98c-25.93,0-46.67,7.98-62.23,21.94V50.48h-63.83V337.7h63.83v-15.96c15.56,13.96,36.3,21.94,62.23,21.94,53.05,0,97.73-42.69,97.73-106.11s-44.68-106.12-97.73-106.12ZM148.37,289.43c-27.92,0-48.27-20.74-48.27-51.86s20.35-51.86,48.27-51.86c25.93,0,49.07,21.14,49.07,51.86s-23.14,51.86-49.07,51.86Zm112.89-151.99h-63.83v15.96c-15.56-13.96-36.3-21.94-62.23-21.94-53.06,0-97.74,43.09-97.74,106.12s44.68,106.11,97.74,106.11c25.93,0,46.67-7.98,62.23-21.94v15.96h63.83V137.44ZM89.24,0H684.19c49.08,0,89.25,40.16,89.25,89.24V372.54c-91.91,8.95-185.98,24.25-271.16,49.84-30.52,9.3-72.11,24.39-98.58,41.86-9.81,7.29-2.72,9.11,5.48,15.05,23.98,17.41,49.41,33.6,72.38,52.09,10.68,8.67,21.29,17.38,32.11,25.87,5.59,4.33,3.57,4.13,11.45-.46,21.93-13.28,43.26-28.78,65.18-42.66,59.84-37.9,120-72.57,183.14-102.27v35.21c-30.4,14.66-60,30.48-90.3,48.11-37.79,22.04-75.27,44.61-111.97,68.45-3.73,2.39-27.72,16.77-25.64,20.69,4.13,7.8,51.72,51.16,64.54,64.89,6.38,6.84,34.59,39.76,39.29,42.54,7.28,4.3,11.07-2.52,16.48-7.66,15.75-14.05,30.34-28.65,45.06-43.75,8.87-9.11,17.47-18.38,25.99-27.83,12.48-13.88,24.5-27.12,36.54-41.04v48.88c-6.42,7.13-12.83,14.12-19.18,20.9-21.09,22.52-45.39,41.72-66.81,63.49-19.24,19.56-11.6,20.63,3.97,39.15,7.1,8.45,13.44,16.82,20.25,25.17-8.67,2.83-17.9,4.36-27.48,4.36h-1.93c-28.51-36.21-58.3-71.45-90.42-104.49-36.21-37.17-78.18-76.92-118.13-109.97C333.97,445.65,173.43,396.23,0,370.44V89.24C0,40.16,40.16,0,89.24,0Z"/>
  </g>
</svg>